<svg id="visual" viewBox="0 0 960 540" width="960" height="540" xmlns="http://www.w3.org/2000/svg" xmlns:xlink="http://www.w3.org/1999/xlink" version="1.1"><rect x="0" y="0" width="960" height="540" fill="#f1f1f1"></rect><path d="M0 394L22.8 398.8C45.7 403.7 91.3 413.3 137 416.2C182.7 419 228.3 415 274 407.2C319.7 399.3 365.3 387.7 411.2 391C457 394.3 503 412.7 548.8 417.8C594.7 423 640.3 415 686 416.7C731.7 418.3 777.3 429.7 823 425.3C868.7 421 914.3 401 937.2 391L960 381L960 541L937.2 541C914.3 541 868.7 541 823 541C777.3 541 731.7 541 686 541C640.3 541 594.7 541 548.8 541C503 541 457 541 411.2 541C365.3 541 319.7 541 274 541C228.3 541 182.7 541 137 541C91.3 541 45.7 541 22.8 541L0 541Z" fill="#d60c0c"></path><path d="M0 436L22.8 437.2C45.7 438.3 91.3 440.7 137 437.2C182.7 433.7 228.3 424.3 274 427.3C319.7 430.3 365.3 445.7 411.2 455C457 464.3 503 467.7 548.8 461.3C594.7 455 640.3 439 686 435.5C731.7 432 777.3 441 823 445.2C868.7 449.3 914.3 448.7 937.2 448.3L960 448L960 541L937.2 541C914.3 541 868.7 541 823 541C777.3 541 731.7 541 686 541C640.3 541 594.7 541 548.8 541C503 541 457 541 411.2 541C365.3 541 319.7 541 274 541C228.3 541 182.7 541 137 541C91.3 541 45.7 541 22.8 541L0 541Z" fill="#9c005d"></path><path d="M0 460L22.8 463.2C45.7 466.3 91.3 472.7 137 477.5C182.7 482.3 228.3 485.7 274 490.5C319.7 495.3 365.3 501.7 411.2 500.3C457 499 503 490 548.8 484.8C594.7 479.7 640.3 478.3 686 482.2C731.7 486 777.3 495 823 492C868.7 489 914.3 474 937.2 466.5L960 459L960 541L937.2 541C914.3 541 868.7 541 823 541C777.3 541 731.7 541 686 541C640.3 541 594.7 541 548.8 541C503 541 457 541 411.2 541C365.3 541 319.7 541 274 541C228.3 541 182.7 541 137 541C91.3 541 45.7 541 22.8 541L0 541Z" fill="#051a6d"></path></svg>